#!OML:ASF H:\GeneralSubjects\Female5\Project 1\Capture day 1\Session 1\Female5.ASF
:FULLY-SPECIFIED
:DEGREES
221
root 5.3359 19.3952 3.84376 -83.1053 84.4773 -94.1803
lowerback 14.4604 -0.465359 -0.992485
upperback -7.35851 -0.324808 2.81877
thorax -16.568 0.230792 3.87543
lowerneck -11.7312 -3.36321 2.14402
upperneck 45.0253 -2.61949 -1.49023
head 19.1589 -0.0188316 -1.31499
rclavicle -6.16543e-015 2.05245e-014
rhumerus -61.7032 11.5075 -54.6171
rradius 36.3208
rwrist -12.7008
rhand -22.8854 -18.3169
rfingers 7.12502
rthumb 3.55375 -48.267
lclavicle -6.16543e-015 2.05245e-014
lhumerus -42.2638 -5.06706 67.2536
lradius 45.1402
lwrist -9.17601
lhand -31.6207 33.0084
lfingers 7.12502
lthumb -4.88246 62.9321
rfemur -42.8982 -0.878743 35.3426
rtibia 96.137
rfoot 346.902 -12.4991
rtoes -37.9833
lfemur -11.3046 -0.170113 -25.3668
ltibia 15.0324
lfoot -35.7112 17.0145
ltoes -61.1226
222
root 5.5049 19.3645 3.86294 -81.9697 85.0469 -92.7409
lowerback 14.4029 -0.478685 -1.22143
upperback -7.30946 -0.434894 2.59023
thorax -16.46 0.181547 3.77026
lowerneck -11.9321 -3.20082 1.86082
upperneck 44.6496 -2.41652 -1.33667
head 18.9877 0.00518786 -1.15536
rclavicle 2.86219e-015 2.61899e-014
rhumerus -61.578 10.7197 -54.6203
rradius 35.8753
rwrist -11.9157
rhand -22.8125 -18.1371
rfingers 7.12502
rthumb 3.62421 -48.086
lclavicle 2.86219e-015 2.61899e-014
lhumerus -41.6891 -5.43744 68.0152
lradius 47.3582
lwrist -8.21032
lhand -31.3218 34.0742
lfingers 7.12502
lthumb -4.59387 64.0044
rfemur -44.2245 0.745075 33.9934
rtibia 95.2435
rfoot 345.694 -14.011
rtoes -34.4102
lfemur -10.0531 -0.282247 -26.0764
ltibia 15.0489
lfoot -37.6522 14.4613
ltoes -58.1694
223
root 5.6775 19.3409 3.88893 -80.7652 85.4314 -91.38
lowerback 14.349 -0.493071 -1.38444
upperback -7.36385 -0.514942 2.42712
thorax -16.4855 0.150635 3.69816
lowerneck -12.2868 -2.98952 1.88771
upperneck 44.4487 -2.06528 -1.53384
head 18.9626 0.104947 -1.19826
rclavicle 1.93194e-015 -1.82882e-014
rhumerus -61.4604 10.0904 -54.689
rradius 35.3192
rwrist -11.5649
rhand -22.4279 -17.9555
rfingers 7.12502
rthumb 3.99555 -47.8978
lclavicle 1.93194e-015 -1.82882e-014
lhumerus -41.5024 -5.90065 68.8058
lradius 49.7319
lwrist -7.41295
lhand -31.4803 34.2046
lfingers 7.12502
lthumb -4.74694 64.1315
rfemur -45.2886 2.33134 32.8745
rtibia 92.7653
rfoot 344.081 -15.172
rtoes -30.4656
lfemur -8.99416 -0.0287516 -26.5285
ltibia 15.3421
lfoot -37.5039 16.1703
ltoes -61.1054
224
root 5.85343 19.3253 3.91908 -80.4598 85.7045 -91.0397
lowerback 14.19 -0.549151 -1.50445
upperback -7.42689 -0.636333 2.29094
thorax -16.4509 0.097536 3.6409
lowerneck -12.3804 -2.80044 1.95642
upperneck 43.9486 -1.79882 -1.70479
head 18.6705 0.165577 -1.24492
rclavicle -4.04868e-015 -1.82882e-014
rhumerus -61.301 9.6615 -55.1112
rradius 34.73
rwrist -11.6252
rhand -22.2571 -18.1938
rfingers 7.12502
rthumb 4.16054 -48.1329
lclavicle -4.04868e-015 -1.82882e-014
lhumerus -41.4135 -6.36212 69.5664
lradius 52.1343
lwrist -6.65401
lhand -31.7673 34.0539
lfingers 7.12502
lthumb -5.02408 63.9744
rfemur -45.9357 3.71876 31.9374
rtibia 88.2765
rfoot 345.22 -17.1543
rtoes -30.8064
lfemur -8.03484 0.211451 -26.7777
ltibia 15.3218
lfoot -38.2931 15.1442
ltoes -60.9311
225
root 6.03331 19.3122 3.94828 -82.5107 86.1727 -93.1321
lowerback 13.9602 -0.640404 -1.81899
upperback -7.47968 -0.849522 2.13599
thorax -16.3496 0.0204178 3.69506
lowerneck -12.2268 -2.68002 1.83939
upperneck 43.1381 -1.672 -1.72521
head 18.1285 0.145878 -1.20503
rclavicle 2.03599e-015 2.11706e-014
rhumerus -61.2353 9.33734 -55.7065
rradius 34.3133
rwrist -12.0217
rhand -22.6523 -18.2103
rfingers 7.12502
rthumb 3.7789 -48.1566
lclavicle 2.03599e-015 2.11706e-014
lhumerus -41.467 -6.89283 70.5064
lradius 54.4058
lwrist -6.01024
lhand -31.5449 35.7193
lfingers 7.12502
lthumb -4.80929 65.6447
rfemur -46.1217 4.77876 30.7358
rtibia 82.8654
rfoot 345.963 -17.6069
rtoes -28.4069
lfemur -6.82294 -1.06919 -27.1147
ltibia 13.7366
lfoot -37.303 19.2052
ltoes -63.9956
226
root 6.21891 19.299 3.97936 -86.5153 86.7165 -97.2448
lowerback 13.7416 -0.712357 -2.26286
upperback -7.52488 -1.05788 2.0063
thorax -16.2441 -0.038722 3.84944
lowerneck -12.5432 -2.52964 1.92714
upperneck 42.6897 -1.48174 -1.90156
head 17.944 0.181624 -1.27349
rclavicle -9.01597e-015 6.36111e-015
rhumerus -61.2976 8.92928 -56.1425
rradius 34.1372
rwrist -12.3919
rhand -22.9271 -18.0963
rfingers 7.12502
rthumb 3.51346 -48.0471
lclavicle -9.01597e-015 6.36111e-015
lhumerus -41.6276 -7.54879 71.6823
lradius 56.3819
lwrist -5.75238
lhand -31.9344 37.3539
lfingers 7.12502
lthumb -5.18536 67.2705
rfemur -45.7637 5.6223 29.4298
rtibia 76.3656
rfoot 347.108 -17.0908
rtoes -26.7238
lfemur -5.76841 -1.28255 -27.6846
ltibia 13.0172
lfoot -38.9812 17.1734
ltoes -62.2057
